<svg width="30" height="30" viewBox="0 0 30 30" fill="none" xmlns="http://www.w3.org/2000/svg">
<path fill-rule="evenodd" clip-rule="evenodd" d="M25.3333 0C27.5425 0 29.3333 1.79087 29.3333 4V25.3333C29.3333 27.5425 27.5425 29.3333 25.3333 29.3333H4C1.79087 29.3333 0 27.5425 0 25.3333V4C0 1.79087 1.79087 0 4 0H25.3333ZM25.3333 2.66667C26.0697 2.66667 26.6667 3.26363 26.6667 4V25.3333C26.6667 26.0697 26.0697 26.6667 25.3333 26.6667H18.6667V17.3332H21.4349C22.0088 17.3332 22.5183 16.966 22.6999 16.4215L23.2905 14.6495C23.5064 14.0019 23.0244 13.3332 22.3419 13.3332H18.6667V10.6666C18.6667 9.99989 19.3333 9.33323 20 9.33323H22.6667C23.4031 9.33323 24 8.73627 24 7.99989V7.08524C24 6.65455 23.7249 6.2684 23.3084 6.15849C21.5607 5.69727 20 5.69727 20 5.69727C16.6667 5.69727 14.6667 7.99989 14.6667 9.99989V13.3332H12C11.2636 13.3332 10.6667 13.9301 10.6667 14.6665V15.9999C10.6667 16.7363 11.2636 17.3332 12 17.3332H14.6667V26.6667H4C3.26363 26.6667 2.66667 26.0697 2.66667 25.3333V4C2.66667 3.26363 3.26363 2.66667 4 2.66667H25.3333Z" fill="#FFD249"/>
</svg>
