<svg width="30" height="30">
	<path fill-rule="evenodd" clip-rule="evenodd"
		d="M25.333 0a4 4 0 014 4v21.333a4 4 0 01-4 4H4a4 4 0 01-4-4V4a4 4 0 014-4h21.333zm0 2.667c.737 0 1.334.597 1.334 1.333v21.333c0 .737-.597 1.334-1.334 1.334h-6.666v-9.334h2.768c.574 0 1.083-.367 1.265-.911l.59-1.773a1 1 0 00-.948-1.316h-3.675v-2.666c0-.667.666-1.334 1.333-1.334h2.667C23.403 9.333 24 8.736 24 8v-.915a.946.946 0 00-.692-.927c-1.747-.46-3.308-.46-3.308-.46-3.333 0-5.333 2.302-5.333 4.302v3.333H12c-.736 0-1.333.597-1.333 1.333V16c0 .736.597 1.333 1.333 1.333h2.667v9.334H4a1.333 1.333 0 01-1.333-1.334V4c0-.736.597-1.333 1.333-1.333h21.333z"
		fill="#FFD249" />
</svg>
