<svg width="32" height="32">
	<path fill-rule="evenodd" clip-rule="evenodd"
		d="M9.391.196C6.787.314 4.53.951 2.706 2.766.877 4.59.248 6.857.13 9.435c-.073 1.608-.501 13.762.74 16.95a8.065 8.065 0 004.657 4.643c1.013.394 2.169.66 3.864.739 14.178.641 19.433.292 21.65-5.382.392-1.01.663-2.165.738-3.857.648-14.213-.105-17.294-2.576-19.762C27.243.81 24.938-.52 9.391.196zm.131 28.712c-1.552-.07-2.394-.328-2.956-.546a5.208 5.208 0 01-3.022-3.012c-.946-2.422-.632-13.925-.548-15.786.083-1.824.452-3.49 1.739-4.776C6.327 3.2 8.384 2.42 22.389 3.053c1.828.083 3.498.452 4.787 1.735 1.592 1.588 2.382 3.66 1.739 17.612-.07 1.549-.33 2.389-.548 2.95-1.44 3.692-4.755 4.204-18.845 3.558zM22.543 7.503a1.91 1.91 0 001.91 1.907 1.91 1.91 0 001.913-1.907 1.91 1.91 0 00-1.912-1.905c-1.056 0-1.91.854-1.91 1.905zM7.78 15.981c0 4.504 3.66 8.155 8.175 8.155 4.516 0 8.176-3.651 8.176-8.155s-3.66-8.153-8.175-8.153c-4.516 0-8.176 3.649-8.176 8.153zm2.87 0a5.3 5.3 0 015.306-5.293 5.3 5.3 0 015.306 5.293 5.301 5.301 0 01-5.306 5.295 5.301 5.301 0 01-5.307-5.295z"
		fill="#FFD249" />
</svg>
