<svg width="57" height="53" viewBox="0 0 57 53" fill="none" xmlns="http://www.w3.org/2000/svg">
<g clip-path="url(#clip0_2063_42)">
<path d="M56.9997 14.9419C56.9997 14.9392 56.9994 14.9365 56.9993 14.9338C56.9991 14.9177 56.9978 14.9018 56.9966 14.8856C56.9957 14.8738 56.9954 14.8617 56.994 14.85C56.9924 14.8351 56.9893 14.8204 56.9868 14.8055C56.9846 14.7928 56.9829 14.7799 56.9801 14.7675C56.9772 14.7546 56.973 14.7416 56.9694 14.7288C56.9655 14.7149 56.9622 14.7009 56.9575 14.6874C56.9537 14.6761 56.9488 14.6651 56.9444 14.6541C56.9386 14.6392 56.9332 14.6242 56.9266 14.6098C56.9221 14.6001 56.9166 14.5907 56.9116 14.5811C56.9037 14.5657 56.8963 14.5501 56.8875 14.5354C56.8823 14.5265 56.8761 14.518 56.8704 14.5093C56.8607 14.4941 56.8511 14.4788 56.8403 14.4642C56.8342 14.4559 56.8275 14.4483 56.821 14.4403C56.8093 14.4257 56.7979 14.4112 56.7853 14.3973C56.7836 14.3956 56.7823 14.3935 56.7806 14.3917C56.7744 14.385 56.7675 14.3792 56.7612 14.3727C56.7492 14.3604 56.7372 14.3482 56.7244 14.3365C56.7144 14.3274 56.7039 14.319 56.6936 14.3104C56.6819 14.3007 56.6703 14.2911 56.6582 14.2821C56.6467 14.2734 56.6347 14.2656 56.6226 14.2574C56.6106 14.2493 56.5986 14.2412 56.5862 14.2337C56.5741 14.2263 56.5616 14.2196 56.5493 14.2129C56.5359 14.2056 56.5227 14.1985 56.5089 14.1917C56.4969 14.1862 56.4849 14.1809 56.473 14.1757C56.4579 14.1692 56.4427 14.1628 56.4271 14.157C56.4159 14.1528 56.4045 14.1492 56.3932 14.1455C56.3765 14.14 56.3597 14.1348 56.3426 14.1302C56.3316 14.1273 56.3205 14.1248 56.3093 14.1222C56.2918 14.1181 56.2743 14.1143 56.2566 14.1112C56.2446 14.109 56.2324 14.1077 56.2203 14.106C56.2035 14.1038 56.1866 14.1015 56.1695 14.1001C56.1552 14.099 56.1409 14.0987 56.1266 14.0981C56.1144 14.0977 56.1024 14.0964 56.0902 14.0964H49.42V0.846204C49.42 0.379042 49.0129 0.000488281 48.5104 0.000488281H8.4894C7.98698 0.000488281 7.57986 0.379042 7.57986 0.846204V14.0961H0.909683C0.90022 14.0961 0.89098 14.0971 0.881628 14.0974C0.863704 14.098 0.845892 14.0985 0.827857 14.0999C0.813718 14.1011 0.799691 14.1031 0.785664 14.1049C0.770635 14.1069 0.755606 14.1086 0.740688 14.1113C0.725436 14.1139 0.710518 14.1173 0.6956 14.1206C0.681907 14.1236 0.668325 14.1267 0.654854 14.1305C0.639937 14.1345 0.625353 14.1392 0.610657 14.1439C0.597187 14.1482 0.583828 14.1526 0.570691 14.1576C0.556886 14.1627 0.543527 14.1685 0.530057 14.1742C0.516363 14.1801 0.502781 14.1858 0.489422 14.1923C0.477065 14.1983 0.465041 14.2048 0.453018 14.2112C0.439325 14.2186 0.425743 14.226 0.412495 14.2341C0.40114 14.2411 0.389896 14.2485 0.378874 14.2559C0.366183 14.2645 0.35338 14.2731 0.341023 14.2822C0.329333 14.2909 0.318312 14.3001 0.307179 14.3092C0.296381 14.3181 0.285471 14.3269 0.275006 14.3363C0.262426 14.3477 0.250514 14.3599 0.238602 14.372C0.232145 14.3786 0.225131 14.3845 0.219008 14.3912C0.217338 14.393 0.216002 14.3951 0.214332 14.3969C0.201752 14.4108 0.190174 14.4253 0.178596 14.4399C0.172139 14.4478 0.165348 14.4557 0.159337 14.4638C0.148538 14.4784 0.138964 14.4937 0.129167 14.5089C0.123601 14.5176 0.117366 14.5261 0.112134 14.535C0.10345 14.5497 0.0958802 14.5651 0.0880873 14.5803C0.0830775 14.5902 0.0775112 14.5996 0.0729468 14.6095C0.0662671 14.6239 0.0609234 14.6389 0.0551344 14.6538C0.050904 14.6649 0.0458942 14.6758 0.0421091 14.6869C0.0375447 14.7006 0.0340935 14.7147 0.0300858 14.7287C0.0265233 14.7414 0.0224042 14.7541 0.0195097 14.767C0.0167265 14.7795 0.0150566 14.7923 0.01283 14.805C0.0102695 14.8199 0.00726368 14.8345 0.00559377 14.8495C0.00425784 14.8612 0.00392386 14.8733 0.00303324 14.8851C0.00191997 14.9012 0.00058404 14.9174 0.000361386 14.9333C0.000361386 14.936 -8.39233e-05 14.9387 -8.39233e-05 14.9414V52.1538C-8.39233e-05 52.1564 0.000250058 52.1589 0.000250058 52.1615C0.000361386 52.1784 0.00169731 52.1953 0.00303324 52.2121C0.00392386 52.2233 0.00414651 52.2346 0.00548244 52.2457C0.00726368 52.2613 0.0104922 52.2769 0.013164 52.2925C0.0151679 52.3043 0.0168378 52.3166 0.0195097 52.3283C0.0226268 52.342 0.0270799 52.3556 0.0307537 52.369C0.0345389 52.3821 0.037656 52.3955 0.0419978 52.4084C0.0461169 52.4203 0.0513493 52.4321 0.0559137 52.4439C0.0613687 52.458 0.0664898 52.4721 0.0727241 52.4858C0.0773999 52.4962 0.0834115 52.5062 0.0886439 52.5164C0.0962142 52.5313 0.10345 52.5461 0.111911 52.5604C0.117255 52.5694 0.123489 52.578 0.129167 52.5868C0.138853 52.602 0.148427 52.6172 0.159225 52.6316C0.165237 52.6396 0.172028 52.6475 0.178485 52.6555C0.190174 52.6701 0.201641 52.6846 0.214221 52.6984C0.215891 52.7002 0.217227 52.7023 0.218897 52.7041C0.224018 52.7095 0.229584 52.7142 0.234817 52.7194C0.2494 52.7345 0.264096 52.7489 0.279682 52.7629C0.289033 52.7713 0.298496 52.7791 0.30807 52.7869C0.321875 52.7983 0.336013 52.8093 0.350374 52.8199C0.361284 52.8277 0.372194 52.8354 0.383439 52.8428C0.3978 52.8524 0.412495 52.8613 0.427413 52.8698C0.438879 52.8765 0.450346 52.8833 0.462147 52.8895C0.478401 52.8981 0.494988 52.9058 0.51191 52.9134C0.52282 52.9183 0.533508 52.9236 0.54464 52.9281C0.564123 52.9361 0.584273 52.943 0.604534 52.9497C0.613441 52.9526 0.622013 52.956 0.630808 52.9586C0.655077 52.9659 0.680014 52.9717 0.705174 52.9772C0.710407 52.9783 0.715639 52.9799 0.720871 52.9809C0.750151 52.9867 0.779764 52.991 0.809933 52.9941C0.845558 52.9978 0.877398 52.9995 0.90946 52.9995H56.0899C56.1221 52.9995 56.1538 52.9978 56.1851 52.9947C56.2196 52.991 56.2494 52.9867 56.2786 52.9809C56.284 52.9799 56.2892 52.9783 56.2946 52.9771C56.3197 52.9717 56.3445 52.9658 56.3688 52.9585C56.3777 52.9559 56.3863 52.9525 56.3951 52.9496C56.4153 52.9429 56.4355 52.936 56.4551 52.928C56.4661 52.9235 56.4768 52.9183 56.4877 52.9133C56.5045 52.9057 56.5213 52.898 56.5375 52.8894C56.5493 52.8832 56.5606 52.8766 56.5722 52.8697C56.5871 52.8611 56.6018 52.8521 56.6161 52.8427C56.6273 52.8353 56.6383 52.8276 56.6492 52.8196C56.6638 52.8091 56.6777 52.7981 56.6915 52.7868C56.7011 52.779 56.7107 52.7712 56.7199 52.7628C56.7356 52.7488 56.7502 52.7342 56.7648 52.7193C56.7699 52.7141 56.7756 52.7094 56.7807 52.704C56.7824 52.7023 56.7837 52.7002 56.7854 52.6984C56.798 52.6846 56.8096 52.67 56.8211 52.6555C56.8276 52.6475 56.8344 52.6396 56.8404 52.6316C56.8512 52.617 56.8608 52.6016 56.8706 52.5864C56.8761 52.5777 56.8824 52.5692 56.8876 52.5603C56.8963 52.5455 56.9038 52.5301 56.9116 52.5149C56.9166 52.5052 56.9222 52.4957 56.9267 52.4859C56.9333 52.4715 56.9387 52.4565 56.9445 52.4416C56.9488 52.4305 56.9538 52.4197 56.9576 52.4084C56.9622 52.3947 56.9656 52.3807 56.9695 52.3669C56.9732 52.354 56.9773 52.3413 56.9802 52.3283C56.983 52.3157 56.9847 52.3029 56.9869 52.2903C56.9895 52.2754 56.9925 52.2608 56.9941 52.2458C56.9955 52.2341 56.9958 52.222 56.9967 52.2101C56.9978 52.194 56.9991 52.1779 56.9994 52.1619C56.9994 52.1592 56.9998 52.1565 56.9998 52.1538V14.9419H56.9997ZM49.42 15.7876H53.6314L49.42 19.1441V15.7876ZM9.39905 1.69202H47.6009V20.5939L28.4999 35.8171L9.39905 20.5939V1.69202ZM7.57986 15.7876V19.1441L3.36846 15.7876H7.57986ZM1.81934 16.7808L22.8576 33.5481L1.81934 50.3155V16.7808ZM55.1806 50.3156L46.3907 43.3099C46.0091 43.0057 45.435 43.047 45.1082 43.4017C44.7813 43.7563 44.8255 44.2902 45.2068 44.5942L53.6315 51.3086H3.36846L24.2552 34.6619L27.9081 37.5732C28.0783 37.709 28.2893 37.7768 28.5 37.7768C28.7108 37.7768 28.9217 37.7089 29.092 37.5732L32.7445 34.662L42.4443 42.3927C42.6158 42.5294 42.8262 42.5963 43.0358 42.5963C43.2922 42.5963 43.547 42.4961 43.7268 42.301C44.0537 41.9463 44.0095 41.4124 43.6282 41.1085L34.142 33.5481L55.1804 16.7808V50.3156H55.1806Z" fill="#02715C"/>
</g>
<defs>
<clipPath id="clip0_2063_42">
<rect width="57" height="53" fill="white"/>
</clipPath>
</defs>
</svg>
