<svg width="208" height="28" viewBox="0 0 208 28" fill="none" xmlns="http://www.w3.org/2000/svg">
<path d="M-6.85453e-06 21.728V1.00803H4.31199V17.976H14.448V21.728H-6.85453e-06ZM20.2322 4.87203C19.4855 4.87203 18.8788 4.63869 18.4122 4.17203C17.9455 3.68669 17.7122 3.11736 17.7122 2.46403C17.7122 1.77336 17.9455 1.19469 18.4122 0.728026C18.8788 0.242693 19.4855 2.67029e-05 20.2322 2.67029e-05C20.9415 2.67029e-05 21.5388 0.242693 22.0242 0.728026C22.5095 1.19469 22.7522 1.77336 22.7522 2.46403C22.7522 3.11736 22.5095 3.68669 22.0242 4.17203C21.5388 4.63869 20.9415 4.87203 20.2322 4.87203ZM18.1042 21.728V6.88803H22.3602V21.728H18.1042ZM30.4493 21.728L25.0173 6.88803H29.2733L32.7453 16.94L36.0773 6.88803H40.3613L34.9013 21.728H30.4493ZM45.1423 4.87203C44.3957 4.87203 43.789 4.63869 43.3223 4.17203C42.8557 3.68669 42.6223 3.11736 42.6223 2.46403C42.6223 1.77336 42.8557 1.19469 43.3223 0.728026C43.789 0.242693 44.3957 2.67029e-05 45.1423 2.67029e-05C45.8517 2.67029e-05 46.449 0.242693 46.9343 0.728026C47.4197 1.19469 47.6623 1.77336 47.6623 2.46403C47.6623 3.11736 47.4197 3.68669 46.9343 4.17203C46.449 4.63869 45.8517 4.87203 45.1423 4.87203ZM43.0143 21.728V6.88803H47.2703V21.728H43.0143ZM50.9075 21.728V6.88803H55.1635V9.01603H55.3035C55.4715 8.71736 55.7142 8.38136 56.0315 8.00803C56.3675 7.63469 56.8062 7.30803 57.3475 7.02803C57.9075 6.74803 58.6168 6.60803 59.4755 6.60803C60.6328 6.60803 61.5755 6.87869 62.3035 7.42003C63.0315 7.94269 63.5635 8.62403 63.8995 9.46403C64.2355 10.2854 64.4035 11.1534 64.4035 12.068V21.728H60.1475V12.796C60.1475 12.0867 59.9515 11.4614 59.5595 10.92C59.1862 10.3787 58.5795 10.108 57.7395 10.108C57.1048 10.108 56.6008 10.2574 56.2275 10.556C55.8542 10.8547 55.5835 11.2374 55.4155 11.704C55.2475 12.1707 55.1635 12.6654 55.1635 13.188V21.728H50.9075ZM75.0938 27.664C73.7125 27.664 72.5738 27.496 71.6778 27.16C70.8005 26.824 70.1005 26.3947 69.5778 25.872C69.0551 25.368 68.6725 24.864 68.4298 24.36C68.1871 23.856 68.0285 23.4267 67.9538 23.072C67.8978 22.736 67.8698 22.568 67.8698 22.568H72.0138C72.0138 22.568 72.0418 22.652 72.0978 22.82C72.1725 23.0067 72.3125 23.212 72.5178 23.436C72.7231 23.6787 73.0218 23.884 73.4138 24.052C73.8245 24.2387 74.3658 24.332 75.0378 24.332C76.1951 24.332 77.0445 24.0054 77.5858 23.352C78.1458 22.6987 78.4258 21.84 78.4258 20.776V19.208H78.2298C78.0431 19.5067 77.7631 19.8334 77.3898 20.188C77.0165 20.5427 76.5405 20.8414 75.9618 21.084C75.3831 21.3267 74.6831 21.448 73.8618 21.448C72.7605 21.448 71.7991 21.2427 70.9778 20.832C70.1565 20.4027 69.4658 19.8334 68.9058 19.124C68.3645 18.4147 67.9538 17.6214 67.6738 16.744C67.4125 15.8667 67.2818 14.9614 67.2818 14.028C67.2818 13.1134 67.4125 12.2174 67.6738 11.34C67.9538 10.444 68.3645 9.64136 68.9058 8.93203C69.4658 8.22269 70.1565 7.66269 70.9778 7.25203C71.7991 6.82269 72.7605 6.60803 73.8618 6.60803C74.6831 6.60803 75.3831 6.73869 75.9618 7.00003C76.5405 7.24269 77.0165 7.54136 77.3898 7.89603C77.7818 8.23203 78.0618 8.55869 78.2298 8.87603H78.4258V6.88803H82.6818V20.776C82.6818 22.008 82.4111 23.1467 81.8698 24.192C81.3285 25.2374 80.4978 26.0774 79.3778 26.712C78.2578 27.3467 76.8298 27.664 75.0938 27.664ZM75.0378 18.088C75.8218 18.088 76.4658 17.892 76.9698 17.5C77.4925 17.108 77.8845 16.604 78.1458 15.988C78.4071 15.3534 78.5378 14.7 78.5378 14.028C78.5378 13.3374 78.4071 12.684 78.1458 12.068C77.8845 11.452 77.4925 10.948 76.9698 10.556C76.4658 10.164 75.8218 9.96803 75.0378 9.96803C74.2725 9.96803 73.6285 10.164 73.1058 10.556C72.6018 10.948 72.2191 11.452 71.9578 12.068C71.6965 12.684 71.5658 13.3374 71.5658 14.028C71.5658 14.7 71.6965 15.3534 71.9578 15.988C72.2191 16.604 72.6018 17.108 73.1058 17.5C73.6285 17.892 74.2725 18.088 75.0378 18.088ZM100.396 22.008C99.052 22.008 97.904 21.8494 96.952 21.532C96.0186 21.196 95.2346 20.776 94.6 20.272C93.984 19.7494 93.4893 19.208 93.116 18.648C92.7426 18.0694 92.4626 17.528 92.276 17.024C92.108 16.5014 91.996 16.0814 91.94 15.764C91.9026 15.428 91.884 15.26 91.884 15.26H96.252C96.252 15.26 96.2893 15.4187 96.364 15.736C96.4573 16.0534 96.644 16.4267 96.924 16.856C97.204 17.2667 97.6333 17.6307 98.212 17.948C98.7906 18.2467 99.5746 18.396 100.564 18.396C101.777 18.396 102.673 18.144 103.252 17.64C103.831 17.1174 104.12 16.5014 104.12 15.792C104.12 15.1574 103.896 14.6534 103.448 14.28C103.019 13.9067 102.347 13.6267 101.432 13.44L98.66 12.908C97.54 12.7027 96.4946 12.376 95.524 11.928C94.572 11.48 93.7973 10.864 93.2 10.08C92.6026 9.27736 92.304 8.25069 92.304 7.00003C92.304 5.73069 92.6213 4.62936 93.256 3.69603C93.8906 2.74403 94.7773 2.01603 95.916 1.51203C97.0733 0.989359 98.4266 0.728026 99.976 0.728026C101.432 0.728026 102.636 0.942692 103.588 1.37203C104.559 1.78269 105.324 2.29603 105.884 2.91203C106.463 3.50936 106.883 4.11603 107.144 4.73203C107.424 5.34803 107.601 5.86136 107.676 6.27203C107.769 6.68269 107.816 6.88803 107.816 6.88803H103.56C103.56 6.88803 103.523 6.75736 103.448 6.49603C103.392 6.23469 103.243 5.93603 103 5.60003C102.757 5.26403 102.384 4.96536 101.88 4.70403C101.395 4.44269 100.723 4.31203 99.864 4.31203C98.688 4.31203 97.8386 4.57336 97.316 5.09603C96.7933 5.60003 96.532 6.15069 96.532 6.74803C96.532 7.36403 96.7933 7.84003 97.316 8.17603C97.8386 8.51203 98.52 8.76403 99.36 8.93203L102.3 9.52003C103.42 9.72536 104.447 10.0707 105.38 10.556C106.313 11.0414 107.051 11.6947 107.592 12.516C108.152 13.3187 108.432 14.3174 108.432 15.512C108.432 16.744 108.124 17.8547 107.508 18.844C106.892 19.8147 105.987 20.5894 104.792 21.168C103.597 21.728 102.132 22.008 100.396 22.008ZM117.952 22.008C116.795 22.008 115.871 21.84 115.18 21.504C114.49 21.1494 113.967 20.7107 113.612 20.188C113.258 19.6467 113.024 19.0774 112.912 18.48C112.8 17.8827 112.744 17.332 112.744 16.828V10.276H110.224V6.88803H112.744V3.22003H117V6.88803H120.164V10.276H117V16.716C117 17.332 117.159 17.808 117.476 18.144C117.812 18.48 118.363 18.648 119.128 18.648C119.464 18.648 119.772 18.62 120.052 18.564C120.332 18.508 120.472 18.48 120.472 18.48V21.756C120.472 21.756 120.22 21.7934 119.716 21.868C119.212 21.9614 118.624 22.008 117.952 22.008ZM123.314 21.728V6.88803H127.542V9.04403H127.682C127.85 8.65203 128.083 8.26936 128.382 7.89603C128.68 7.52269 129.091 7.21469 129.614 6.97203C130.136 6.72936 130.808 6.60803 131.63 6.60803C132.04 6.60803 132.367 6.63603 132.61 6.69203C132.852 6.72936 132.974 6.74803 132.974 6.74803V10.948C132.974 10.948 132.834 10.92 132.554 10.864C132.292 10.808 131.947 10.78 131.518 10.78C130.192 10.78 129.203 11.144 128.55 11.872C127.896 12.5814 127.57 13.748 127.57 15.372V21.728H123.314ZM142.081 22.008C140.774 22.008 139.645 21.7934 138.693 21.364C137.741 20.916 136.957 20.328 136.341 19.6C135.725 18.8534 135.258 18.0227 134.941 17.108C134.642 16.1934 134.493 15.2507 134.493 14.28C134.493 13.3467 134.633 12.432 134.913 11.536C135.211 10.6214 135.659 9.79069 136.257 9.04403C136.873 8.29736 137.647 7.70936 138.581 7.28003C139.533 6.83203 140.653 6.60803 141.941 6.60803C143.303 6.60803 144.507 6.90669 145.553 7.50403C146.617 8.10136 147.447 8.98803 148.045 10.164C148.642 11.3214 148.941 12.7307 148.941 14.392V15.428H138.777C138.833 16.324 139.141 17.0987 139.701 17.752C140.279 18.4054 141.073 18.732 142.081 18.732C142.659 18.732 143.126 18.648 143.481 18.48C143.854 18.2934 144.143 18.088 144.349 17.864C144.554 17.6214 144.694 17.4067 144.769 17.22C144.843 17.0334 144.881 16.94 144.881 16.94H148.801C148.801 16.94 148.754 17.1174 148.661 17.472C148.586 17.808 148.418 18.228 148.157 18.732C147.895 19.236 147.513 19.74 147.009 20.244C146.523 20.748 145.879 21.168 145.077 21.504C144.274 21.84 143.275 22.008 142.081 22.008ZM138.777 12.852H144.853C144.797 11.8254 144.489 11.06 143.929 10.556C143.369 10.052 142.678 9.80003 141.857 9.80003C141.035 9.80003 140.335 10.0707 139.757 10.612C139.178 11.1347 138.851 11.8814 138.777 12.852ZM158.189 6.60803C159.141 6.60803 159.925 6.76669 160.541 7.08403C161.157 7.38269 161.623 7.70936 161.941 8.06403C162.277 8.41869 162.482 8.66136 162.557 8.79203H162.781V6.88803H167.037V21.728H162.781V19.824H162.557C162.482 19.9547 162.277 20.1974 161.941 20.552C161.623 20.9067 161.157 21.2427 160.541 21.56C159.925 21.8587 159.141 22.008 158.189 22.008C157.087 22.008 156.126 21.7934 155.305 21.364C154.502 20.916 153.83 20.328 153.289 19.6C152.747 18.8534 152.337 18.0227 152.057 17.108C151.795 16.1934 151.665 15.26 151.665 14.308C151.665 13.356 151.795 12.4227 152.057 11.508C152.337 10.5934 152.747 9.77203 153.289 9.04403C153.83 8.29736 154.502 7.70936 155.305 7.28003C156.126 6.83203 157.087 6.60803 158.189 6.60803ZM159.421 10.052C158.655 10.052 158.011 10.2667 157.489 10.696C156.985 11.1067 156.602 11.6387 156.341 12.292C156.098 12.9454 155.977 13.6174 155.977 14.308C155.977 14.9987 156.098 15.6707 156.341 16.324C156.602 16.9774 156.985 17.5187 157.489 17.948C158.011 18.3587 158.655 18.564 159.421 18.564C160.186 18.564 160.821 18.3587 161.325 17.948C161.847 17.5187 162.23 16.9774 162.473 16.324C162.734 15.6707 162.865 14.9987 162.865 14.308C162.865 13.6174 162.734 12.9454 162.473 12.292C162.23 11.6387 161.847 11.1067 161.325 10.696C160.821 10.2667 160.186 10.052 159.421 10.052ZM170.372 21.728V6.88803H174.628V8.90403H174.768C175.086 8.36269 175.562 7.84936 176.196 7.36403C176.831 6.86003 177.699 6.60803 178.8 6.60803C179.92 6.60803 180.816 6.86936 181.488 7.39203C182.179 7.91469 182.683 8.55869 183 9.32403H183.056C183.299 8.89469 183.616 8.47469 184.008 8.06403C184.419 7.63469 184.923 7.28936 185.52 7.02803C186.136 6.74803 186.855 6.60803 187.676 6.60803C188.703 6.60803 189.552 6.84136 190.224 7.30803C190.896 7.77469 191.391 8.39069 191.708 9.15603C192.044 9.90269 192.212 10.7054 192.212 11.564V21.728H187.956V12.628C187.956 11.9 187.77 11.3027 187.396 10.836C187.042 10.3507 186.5 10.108 185.772 10.108C185.212 10.108 184.755 10.248 184.4 10.528C184.064 10.808 183.812 11.172 183.644 11.62C183.495 12.0494 183.42 12.4974 183.42 12.964V21.728H179.164V12.628C179.164 11.9 178.978 11.3027 178.604 10.836C178.25 10.3507 177.708 10.108 176.98 10.108C176.42 10.108 175.963 10.248 175.608 10.528C175.272 10.808 175.02 11.172 174.852 11.62C174.703 12.0494 174.628 12.4974 174.628 12.964V21.728H170.372ZM201.718 22.008C200.486 22.008 199.469 21.84 198.666 21.504C197.863 21.168 197.219 20.7574 196.734 20.272C196.267 19.768 195.913 19.2734 195.67 18.788C195.446 18.284 195.297 17.864 195.222 17.528C195.166 17.192 195.138 17.024 195.138 17.024H199.086C199.086 17.024 199.114 17.1174 199.17 17.304C199.226 17.4907 199.347 17.7054 199.534 17.948C199.739 18.1907 200.029 18.4054 200.402 18.592C200.775 18.7787 201.279 18.872 201.914 18.872C202.698 18.872 203.23 18.7134 203.51 18.396C203.809 18.0787 203.958 17.7614 203.958 17.444C203.958 16.772 203.407 16.324 202.306 16.1L200.29 15.708C199.431 15.54 198.619 15.2974 197.854 14.98C197.107 14.644 196.501 14.1867 196.034 13.608C195.586 13.0107 195.362 12.2454 195.362 11.312C195.362 10.416 195.595 9.61336 196.062 8.90403C196.529 8.19469 197.191 7.63469 198.05 7.22403C198.927 6.81336 199.973 6.60803 201.186 6.60803C202.325 6.60803 203.267 6.76669 204.014 7.08403C204.779 7.38269 205.386 7.76536 205.834 8.23203C206.282 8.68003 206.618 9.13736 206.842 9.60403C207.066 10.052 207.206 10.4347 207.262 10.752C207.337 11.0507 207.374 11.2 207.374 11.2H203.566C203.566 11.2 203.51 11.0787 203.398 10.836C203.286 10.5747 203.053 10.3227 202.698 10.08C202.362 9.81869 201.839 9.68803 201.13 9.68803C200.402 9.68803 199.898 9.83736 199.618 10.136C199.338 10.416 199.198 10.7147 199.198 11.032C199.198 11.4054 199.357 11.6854 199.674 11.872C200.01 12.0587 200.439 12.208 200.962 12.32L202.894 12.712C204.313 12.992 205.479 13.4867 206.394 14.196C207.309 14.8867 207.766 15.8947 207.766 17.22C207.766 18.116 207.533 18.928 207.066 19.656C206.599 20.384 205.918 20.9627 205.022 21.392C204.126 21.8027 203.025 22.008 201.718 22.008Z" fill="white"/>
</svg>
